<svg width="163" height="245" fill="none" xmlns="http://www.w3.org/2000/svg"><path stroke="#222" stroke-width="4" d="M2 15.419c0-7.18 5.82-13 13-13h133c7.18 0 13 5.82 13 13v214.162c0 7.179-5.82 13-13 13H15c-7.18 0-13-5.82-13-13z" style="fill:#fff;fill-opacity:1"/><path stroke="#222" stroke-linecap="round" stroke-width="4" d="M21.644 69.405v18.262m0 31.112v17.585"/><path stroke="#222" stroke-width="4" d="M.43 101.566h160.605"/><path stroke="#222" stroke-linecap="round" stroke-width="4" d="M53.094 60.086c19.453 11.95 39.462 10.56 56.137 0"/><circle cx="113.04" cy="54.953" r="11.25" fill="#ff6262" style="stroke-width:.99314"/><path stroke="#222" stroke-linecap="round" stroke-width="4" d="M88 49.009c0-6.666 11-6.666 11 0m-34 0c0-6.666 11-6.666 11 0"/><circle cx="49.373" cy="55.201" r="11.25" fill="#ff6262" style="stroke-width:.99314"/></svg>