<svg width="163" height="245" fill="none" xmlns="http://www.w3.org/2000/svg"><path d="M2 15C2 7.82 7.82 2 15 2h133c7.18 0 13 5.82 13 13v214.162c0 7.179-5.82 13-13 13H15c-7.18 0-13-5.82-13-13V15Z" fill="#fff"/><path d="M2 15C2 7.82 7.82 2 15 2h133c7.18 0 13 5.82 13 13v214.162c0 7.179-5.82 13-13 13H15c-7.18 0-13-5.82-13-13V15Z" fill="#fff" fill-opacity=".1"/><path d="M2 15C2 7.82 7.82 2 15 2h133c7.18 0 13 5.82 13 13v214.162c0 7.179-5.82 13-13 13H15c-7.18 0-13-5.82-13-13V15Z" stroke="#222" stroke-width="4"/><path d="M21.644 68.986v18.262M21.644 118.36v17.585" stroke="#222" stroke-width="4" stroke-linecap="round"/><path d="M.43 101.147h160.605" stroke="#222" stroke-width="4"/><path d="M53.094 59.667c19.453 11.95 39.462 10.56 56.137 0" stroke="#222" stroke-width="4" stroke-linecap="round"/><ellipse cx="112.95" cy="54.782" rx="11.16" ry="11.498" fill="#FF6262"/><path d="M60.871 54.782c0 6.35-5.148 11.498-11.498 11.498s-11.498-5.148-11.498-11.498 5.148-11.498 11.498-11.498 11.498 5.148 11.498 11.498Z" fill="#FF6262"/><path d="M88 48.59c0-6.666 11-6.666 11 0M65 48.59c0-6.666 11-6.666 11 0" stroke="#222" stroke-width="4" stroke-linecap="round"/></svg>